<?xml version="1.0" encoding="UTF-8"?><svg id="Layer_1" xmlns="http://www.w3.org/2000/svg" viewBox="0 0 333.26 333.26"><defs><style>.cls-1{fill:#fff;}</style></defs><path class="cls-1" d="M208.45,127.31l122.18,35.81c3.51,1.03,3.51,6.01,0,7.04l-122.18,35.81c-1.2.35-2.14,1.29-2.49,2.49l-35.81,122.18c-1.03,3.51-6.01,3.51-7.04,0l-35.81-122.18c-.35-1.2-1.29-2.14-2.49-2.49L2.63,170.15c-3.51-1.03-3.51-6.01,0-7.04l122.18-35.81c1.2-.35,2.14-1.29,2.49-2.49L163.11,2.63c1.03-3.51,6.01-3.51,7.04,0l35.81,122.18c.35,1.2,1.29,2.14,2.49,2.49Z"/></svg>